<svg viewBox="0 0 500 260" xmlns="http://www.w3.org/2000/svg" width="500" height="260">
  <defs>
    <clipPath id="eye-clip">
      <path d="M250 100 Q310 60 360 120 Q310 180 250 140 Q190 180 140 120 Q190 60 250 100Z"/>
    </clipPath>
  </defs>
  <rect width="500" height="260" fill="#0b1628"/>
  <ellipse cx="250" cy="120" rx="100" ry="58" fill="none" stroke="#1e3a5f" stroke-width="1"/>
  <path d="M140 120 Q195 55 250 48 Q305 55 360 120" fill="none" stroke="#3b82f6" stroke-width="2.2" stroke-linecap="round"/>
  <path d="M140 120 Q195 185 250 192 Q305 185 360 120" fill="none" stroke="#3b82f6" stroke-width="2.2" stroke-linecap="round"/>
  <circle cx="250" cy="120" r="38" fill="none" stroke="#2563eb" stroke-width="1.5"/>
  <circle cx="250" cy="120" r="26" fill="none" stroke="#3b82f6" stroke-width="1"/>
  <circle cx="250" cy="120" r="25" fill="#0f2444"/>
  <g clip-path="url(#eye-clip)">
    <path d="M160 120 q6-10 12 0 q6 10 12 0 q6-10 12 0 q6 10 12 0 q6-10 12 0 q6 10 12 0 q6-10 12 0 q6 10 12 0 q6-10 12 0 q6 10 12 0 q6-10 12 0 q6 10 12 0 q6-10 12 0 q6 10 12 0" fill="none" stroke="#60a5fa" stroke-width="1.2" opacity="0.5"/>
    <path d="M162 113 q5-16 10 0 q5 16 10 0 q5-16 10 0 q5 16 10 0 q5-16 10 0 q5 16 10 0 q5-16 10 0 q5 16 10 0 q5-16 10 0 q5 16 10 0 q5-16 10 0 q5 16 10 0" fill="none" stroke="#3b82f6" stroke-width="1" opacity="0.35"/>
  </g>
  <circle cx="250" cy="120" r="10" fill="#1d4ed8"/>
  <circle cx="250" cy="120" r="4.5" fill="#93c5fd"/>
  <circle cx="254" cy="116" r="1.8" fill="#dbeafe"/>
  <line x1="124" y1="120" x2="140" y2="120" stroke="#1e3a5f" stroke-width="1" stroke-linecap="round"/>
  <line x1="118" y1="115" x2="130" y2="115" stroke="#1e3a5f" stroke-width="0.6" opacity="0.5"/>
  <line x1="118" y1="125" x2="130" y2="125" stroke="#1e3a5f" stroke-width="0.6" opacity="0.5"/>
  <line x1="360" y1="120" x2="376" y2="120" stroke="#1e3a5f" stroke-width="1" stroke-linecap="round"/>
  <line x1="370" y1="115" x2="382" y2="115" stroke="#1e3a5f" stroke-width="0.6" opacity="0.5"/>
  <line x1="370" y1="125" x2="382" y2="125" stroke="#1e3a5f" stroke-width="0.6" opacity="0.5"/>
  <line x1="140" y1="132" x2="360" y2="132" stroke="#1d4ed8" stroke-width="0.7" stroke-dasharray="5,4" opacity="0.4"/>
  <circle cx="250" cy="82" r="2.5" fill="#60a5fa"/>
  <circle cx="250" cy="158" r="2.5" fill="#60a5fa"/>
  <circle cx="212" cy="120" r="2" fill="#3b82f6" opacity="0.7"/>
  <circle cx="288" cy="120" r="2" fill="#3b82f6" opacity="0.7"/>
  <text x="250" y="222" text-anchor="middle" font-family="Arial, sans-serif" font-size="32" font-weight="500" fill="#e2e8f0" letter-spacing="2">DeepTrace</text>
  <text x="250" y="244" text-anchor="middle" font-family="Arial, sans-serif" font-size="11" font-weight="400" fill="#64748b" letter-spacing="4">AI MEDIA AUTHENTICATION</text>
  <line x1="190" y1="252" x2="310" y2="252" stroke="#1e3a5f" stroke-width="0.5"/>
</svg>
